<svg xmlns="http://www.w3.org/2000/svg" width="136" height="120" viewBox="0 0 136 120" role="img" aria-label="gogo logo">
  <title>gogo logo</title>
  <defs>
    <linearGradient id="green" x1="0" y1="0" x2="1" y2="1">
      <stop offset="0" stop-color="#C7D94A"/>
      <stop offset="1" stop-color="#91AF42"/>
    </linearGradient>
    <linearGradient id="yellow" x1="0" y1="0" x2="1" y2="1">
      <stop offset="0" stop-color="#FFE17A"/>
      <stop offset="1" stop-color="#F5B32B"/>
    </linearGradient>
    <linearGradient id="beige" x1="0" y1="0" x2="1" y2="1">
      <stop offset="0" stop-color="#EFE2C9"/>
      <stop offset="1" stop-color="#D9C39F"/>
    </linearGradient>
    <filter id="soft" x="-10%" y="-10%" width="120%" height="120%">
      <feGaussianBlur stdDeviation="0"/>
    </filter>
  </defs>
  <g fill="none" stroke-linecap="round" stroke-linejoin="round">
    <!-- shopping bag icon -->
    <path d="M 24 71 L 24 36 Q 24 28 32 28 L 92 28 Q 100 28 101 36 L 106 63" stroke="url(#green)" stroke-width="12"/>
    <path d="M 93 28 Q 102 28 104 37 L 107 63" stroke="url(#yellow)" stroke-width="12"/>
    <path d="M 49 28 V 21 Q 49 8 64 8 Q 79 8 79 21 V 28" stroke="url(#green)" stroke-width="12"/>
    <path d="M 43 58 Q 59 78 76 58" stroke="url(#green)" stroke-width="12"/>
  </g>
  <circle cx="78" cy="49" r="8" fill="url(#yellow)"/>
  <path d="M 92 82 C 104 57 124 62 124 62 C 126 86 106 95 90 94 C 100 88 108 78 115 69 C 105 78 99 82 92 82 Z" fill="url(#beige)"/>
  <path d="M 88 94 C 101 86 111 76 121 64" fill="none" stroke="#FFFFFF" stroke-width="5" stroke-linecap="round"/>
</svg>
